# xmcd
#
# Track frame offsets: 
#        150
#        15352
#        27507
#        43422
#        58238
#        75046
#        91293
#        110712
#
# Disc length: 1714 seconds
#
# Revision: 0
# Processed by: cddbd v1.5.2PL0 Copyright (c) Steve Scherf et al.
# Submitted via: ExactAudioCopy v1.0b1
#
DISCID=5d06b008
DTITLE=Amber Hayes - C'mon
DYEAR=2009
DGENRE=Country
TTITLE0=C'mon
TTITLE1=Good Thing He Can't Read My Mind
TTITLE2=Easy On Me
TTITLE3=Right As Rain
TTITLE4=Can't Take It Back
TTITLE5=Wait
TTITLE6=Home
TTITLE7=Borrow Mine
EXTD=
EXTT0=
EXTT1=
EXTT2=
EXTT3=
EXTT4=
EXTT5=
EXTT6=
EXTT7=
PLAYORDER=
